<svg xmlns="http://www.w3.org/2000/svg" viewBox="0 0 486.4608 245.8847"><defs><style>.cls-1{fill:#e1251b;}.cls-2{fill:#ffc629;}.cls-3{fill:#13110c;fill-rule:evenodd;}</style></defs><title>aecid</title><g id="Capa_2" data-name="Capa 2"><g id="Capa_1-2" data-name="Capa 1"><path class="cls-1" d="M122.9805,122.9522s29.7838,30.4753,52.57,53.2451l33.9907,34.0191A122.9383,122.9383,0,1,1,210.4,36.5207L176.398,70.5114c-23.9726,23.9813-53.4175,52.4408-53.4175,52.4408"/><path class="cls-2" d="M61.4874,122.9522A61.4761,61.4761,0,1,1,122.9805,184.42a61.4769,61.4769,0,0,1-61.4931-61.4677"/><path class="cls-3" d="M308.4251,137.8579c-3.258,2.7388-4.3371,2.9423-5.3028,2.9423-1.4509,0-2.2981-1.0108-2.2981-3.6027V113.3741c0-11.4609-7.624-15.8969-18.8109-15.8969a32.148,32.148,0,0,0-19.2914,6.3646v13.3669c4.4557-5.3057,10.8144-8.728,16.4-8.728,6.0593,0,7.9907,3.86,7.6912,8.728-18.6022,6.8249-26.3893,9.3265-26.3893,21.796,0,6.5733,5.3081,12.7961,12.4238,12.7961,4.8286,0,9.2559-1.5642,14.6548-5.9065.9657,4.207,3.1736,5.9065,7.81,5.9065,3.7438,0,9.2328-2.0442,13.1125-4.7546Zm-21.612.2313c-2.2929,2.5075-5.0768,3.9757-7.6912,3.9757-2.5074,0-4.5522-2.4843-4.5522-5.5625,0-5.212,3.9531-7.4881,12.2434-11.0006Z"/><path class="cls-3" d="M357.5789,134.5768c-6.5675,5.5572-10.9046,7.4881-16.49,7.4881-8.776,0-14.169-5.4439-14.649-14.75h31.9239c.6662-19.0427-10.0412-29.8375-22.9507-29.8375-13.6833,0-23.4476,11.3482-23.4476,27.3359,0,16.3318,10.1257,26.9877,25.7688,26.9877a28.6925,28.6925,0,0,0,19.8442-6.9121Zm-30.868-15.8744c.5991-7.26,4.1567-11.4638,9.6683-11.4638,5.3763,0,9.0524,4.32,9.6289,11.4638Z"/><path class="cls-3" d="M406.2476,136.5024c-6.1784,2.7336-9.16,3.6316-12.5088,3.6316-8.02,0-13.3051-6.1106-13.3051-15.4146,0-9.1877,5.3763-15.0891,13.7851-15.0891a22.5922,22.5922,0,0,1,11.3452,3.5154V100.9024a39.8785,39.8785,0,0,0-14.926-3.4252c-14.66,0-25.1586,11.3482-25.1586,27.3359,0,16.3318,10.1089,26.9877,25.7462,26.9877,4.7095,0,9.42-1.1236,15.022-3.5124Z"/><path class="cls-3" d="M429.8639,98.5135H415.8985V150.79h13.9654ZM422.8332,72.42c-4.2469,0-7.7142,4.0885-7.7142,9.0721,0,5.01,3.4673,9.0726,7.7142,9.0726,4.23,0,7.7258-4.063,7.7258-9.0726,0-4.9836-3.4957-9.0721-7.7258-9.0721"/><path class="cls-3" d="M486.4608,73.4537h-13.988v27.333a22.692,22.692,0,0,0-11.5541-3.284c-12.7291,0-21.6126,11.1168-21.6126,27.1011,0,15.643,8.8835,27.197,20.8273,27.197,4.7327,0,8.3863-1.4682,12.3394-5.1952V150.79h13.988Zm-13.988,63.0487c-2.8972,3.0782-5.3029,4.2978-8.2677,4.2978-6.5733,0-10.7074-6.342-10.7074-15.8518,0-10.45,4.1341-16.4422,11.1648-16.4422a13.6588,13.6588,0,0,1,7.81,3.0527Z"/></g></g></svg>