<svg xmlns="http://www.w3.org/2000/svg" viewBox="0 0 780.2218 231.0086"><defs><style>.cls-1{fill:#a50e30;fill-rule:evenodd;}.cls-2{fill:#706f6f;}</style></defs><title>fundacion_carolina</title><g id="Capa_2" data-name="Capa 2"><g id="Capa_1-2" data-name="Capa 1"><path class="cls-1" d="M115.5084,231.0086A115.5043,115.5043,0,1,1,197.1858,33.8319l.3312.34L150.3175,81.3545l-.9322-.9588a49.0143,49.0143,0,1,0,0,69.3208l.3762-.3853,47.639,47.6482-.2147.1973a115.5082,115.5082,0,0,1-81.6774,33.8319"/><path class="cls-2" d="M275.44,86.9538c-3.4588-.0624-7.1049-.0624-10.7519-.1257-3.6469.0633-7.3022.0633-10.3124.1257V84.2482c6.5315,0,5.51-1.3175,5.6351-5.34V49.2428c-.1247-3.8984.8964-5.4122-5.3131-5.4122V41.1158c2.6882.0715,6.3435.1349,9.99.1349,8.3234,0,16.71-.0634,25.0425-.1349V51.9576h-4.6864c-.7615-7.7958-.7615-7.9389-9.4069-7.7958h-6.281V61.0691h3.9148c3.8351,0,4.6058-2.6433,4.803-6.3435h3.5121c-.0541,2.5717-.0541,5.1517-.1165,7.7325.0624,2.6341.0624,5.214.1165,7.7857h-3.5121c-.3229-3.5662-.8331-6.2-4.803-6.4058h-3.9148V78.9085c0,4.4791-.5111,5.34,6.0837,5.34Z"/><path class="cls-2" d="M316.61,82.7252a12.318,12.318,0,0,1-9.928,4.7663c-7.3645,0-9.2821-2.9121-9.2821-10.107V62.78c0-3.0276.5826-4.5516-4.5424-4.5516v-2.58c2.1772.0624,4.4085.0624,6.5857.134,2.1863-.0716,4.3543-.0716,6.5315-.134v19.156c0,3.5029,0,8.1894,4.614,8.1894,5.51,0,5.6984-4.0855,5.6984-8.5839V62.78c0-2.768.5826-4.5516-4.2287-4.5516v-2.58c2.1148.0624,4.292.0624,6.4059.134,2.1148-.0716,4.2919-.0716,6.4067-.134V79.8223c0,2.9744-.5826,4.56,4.48,4.56v2.5717c-2.1147-.0624-4.2827-.0624-6.3975-.1257-2.124.0633-4.23.0633-6.3435.1257Z"/><path class="cls-2" d="M344.8417,59.68c3.5846-2.5708,5.5012-4.5507,10.3666-4.5507,6.926,0,9.0316,3.6286,9.0316,10.1693v13.61c0,3.96-.6991,5.4736,4.5516,5.4736v2.5717c-2.9387-.0624-5.8957-.0624-8.8435-.1257-2.9387.0633-5.8866.0633-8.0014.1257V84.3821c4.3553,0,3.7094-1.98,3.7094-5.4736V66.3464c0-3.7626-.7615-6.5315-4.99-6.5315-4.3544,0-5.5012,3.7635-5.5012,7.4636v11.63c0,3.4937-.645,5.4736,3.7093,5.4736v2.5717c-2.1148-.0624-5.0626-.0624-8.0013-.1257-2.9478.0633-5.8957.0633-8.7711.1257V84.3821c5.1783,0,4.4792-1.5138,4.4792-5.4736V63.7123c0-3.96.6991-5.4838-4.4792-5.4838v-2.58c2.1047.0624,4.2828.0624,6.4059.134,2.1056-.0716,4.22-.0716,6.3342-.134Z"/><path class="cls-2" d="M394.4607,83.2628a11.0085,11.0085,0,0,1-8.7711,4.2287c-9.22,0-12.9383-5.8774-12.9383-15.0613,0-8.7895,2.4369-17.3009,12.3649-17.3009,2.8845,0,6.782.7257,8.8343,3.5562h.1248V45.4169c0-3.835.7083-5.3581-4.5424-5.3581V37.622H402.65V78.9085c0,3.96-.6276,5.4736,4.6139,5.4736v2.5717c-2.1138-.0624-4.291-.0624-6.4058-.1257-2.1056.0633-4.2828.0633-6.3975.1257Zm-.4478-16.9164c0-3.5663-1.3532-8.1894-5.636-8.1894-5.7609,0-6.0746,6.3434-6.0746,10.9666V72.699c0,4.22.0541,11.4235,5.7525,11.4235,4.292,0,5.9581-4.0314,5.9581-7.8665Z"/><path class="cls-2" d="M430.5689,83.8537c-3.3956,2.312-5.77,3.6378-9.8024,3.6378-5.6984,0-8.5114-3.503-8.5114-9.184,0-5.2865,2.7506-8.4582,7.938-8.9867a39.2152,39.2152,0,0,1,4.803-.2688h5.25c0-3.96,1.5322-11.217-4.1663-11.217-2.4992,0-4.1662.9853-4.3451,5.214.1257,1.4514-.26,1.9808-1.2817,1.9808h-4.4883c-.7615.134-1.4157-.3945-1.2817-1.9808-.51-5.94,5.6984-7.92,11.3968-7.92,9.2913.5193,12.75,1.3166,12.75,10.1693v13.61c0,5.214-.9679,5.4736,4.5516,5.4736v2.5717c-2.1239-.0624-4.3011-.0624-6.4067-.1257-2.1139.0633-4.292.0633-6.4058.1257Zm-.323-12.2208h-2.4276c-3.3332,0-5.3847.6624-6.2811,4.3635-.511,3.3057-.25,7.4627,3.9066,7.4627,3.3956,0,4.8021-2.3826,4.8021-5.7424Z"/><path class="cls-2" d="M469.5616,65.2986c-.323-4.6241-1.8634-7.6068-6.3434-7.6068-7.1774,0-6.9261,8.5922-6.9261,13.9411,0,5.0892-.1789,13.4126,6.6664,13.341,5.1874,0,5.8948-3.4314,6.5315-8.2518h4.1571v8.78a34.9944,34.9944,0,0,1-12.3556,1.9891c-10.1785,0-14.4695-5.0893-14.4695-15.59,0-10.895,4.0313-16.7724,15.24-16.7724a30.2342,30.2342,0,0,1,11.585,2.3735v7.7958Z"/><path class="cls-2" d="M491.5755,78.9709c0,3.8974-.6991,5.4112,4.5425,5.4112v2.5717c-2.9479-.0624-5.8866-.0624-8.8344-.1257-2.9387.0633-5.8866.0633-8.8427.1257V84.3821c5.259,0,4.5507-1.5138,4.5507-5.4112V62.915c0-3.0377.5734-4.5608-4.5507-4.5608V55.7826h13.1346Zm-8.5114-34.4146c0-2.9744,1.4065-5.0892,4.4076-5.0892,3.0194,0,4.4259,2.1148,4.4259,5.0892,0,2.9662-1.4065,5.0177-4.4259,5.0177C484.4706,49.574,483.0641,47.5225,483.0641,44.5563Z"/><path class="cls-2" d="M530.5683,72.0356c0,11.2272-4.8654,15.4559-15.1063,15.4559-10.25,0-15.187-4.2287-15.187-15.4559,0-11.6923,3.9782-16.9063,15.187-16.9063C526.6617,55.1293,530.5683,60.3433,530.5683,72.0356ZM509.63,70.6475c0,4.4259-.7707,14.2631,5.8324,14.2631,6.5948,0,5.8242-9.8372,5.8242-14.2631,0-4.3635.7706-12.8841-5.8242-12.8841C508.8589,57.7634,509.63,66.284,509.63,70.6475Zm4.3544-19.1652h-3.5213l8.1976-9.7747c1.4075-1.7121,2.9479-3.1,5.2416-2.169a2.6388,2.6388,0,0,1,1.801,2.6433c0,2.1056-1.73,2.9662-3.2616,3.9607Z"/><path class="cls-2" d="M547.2783,59.68c3.5836-2.5708,5.5011-4.5507,10.3665-4.5507,6.9169,0,9.0307,3.6286,9.0307,10.1693v13.61c0,3.96-.7073,5.4736,4.5434,5.4736v2.5717c-2.94-.0624-5.8865-.0624-8.8261-.1257-2.9561.0633-5.904.0633-8.01.1257V84.3821c4.3543,0,3.7185-1.98,3.7185-5.4736V66.3464c0-3.7626-.78-6.5315-5-6.5315-4.3544,0-5.51,3.7635-5.51,7.4636v11.63c0,3.4937-.6367,5.4736,3.7177,5.4736v2.5717c-2.1139-.0624-5.0618-.0624-8.01-.1257-2.9479.0633-5.8865.0633-8.772.1257V84.3821c5.1883,0,4.4892-1.5138,4.4892-5.4736V63.7123c0-3.96.6991-5.4838-4.4892-5.4838v-2.58c2.1148.0624,4.2919.0624,6.3976.134,2.123-.0716,4.2378-.0716,6.3526-.134Z"/><path class="cls-2" d="M330.5777,193.9242a149.01,149.01,0,0,1-35.2026,4.4975c-29.2446,0-44.4674-15.8136-44.4674-45.81,0-34.2357,12.58-51.6888,47.2455-51.6888,11.3785,0,21.3056,1.7735,32.4245,4.0947V128.33h-9.3986c-2.5176-17.0422-4.2378-21.54-23.0259-21.54-23.95,0-26.0646,27.13-26.0646,45.8206,0,19.0835,4.892,40.0854,27.1307,40.0854,16.53,0,20.768-7.7682,21.4221-23.4562h9.9363Z"/><path class="cls-2" d="M379.3994,190.9222c-7.0151,4.7755-11.907,7.4995-20.24,7.4995-11.7822,0-17.5971-7.2215-17.5971-18.95,0-10.9134,5.68-17.454,16.4053-18.5468a80.0441,80.0441,0,0,1,9.918-.5468h10.851c0-8.18,3.18-23.1782-8.5931-23.1782-5.1608,0-8.6014,2.0423-9.0041,10.7694.2688,3.001-.5285,4.0947-2.6433,4.0947h-9.2729c-1.5772.2688-2.9029-.8249-2.6433-4.0947-1.0578-12.275,11.7823-16.3605,23.5636-16.3605,19.1835,1.0845,26.3334,2.724,26.3334,21.002V180.7c0,10.7693-1.9891,11.3162,9.3894,11.3162v5.3222c-4.3635-.1348-8.87-.1348-13.2336-.278-4.3636.1432-8.861.1432-13.2337.278Zm-.6624-25.2214H373.71c-6.8811,0-11.11,1.3615-12.9649,8.9959-1.0661,6.8177-.5284,15.4108,8.0729,15.4108,7.0068,0,9.9189-4.91,9.9189-11.863Z"/><path class="cls-2" d="M437.7545,140.739c3.8433-5.3131,8.4757-9.13,15.2228-9.13,7.5343,0,12.57,4.0855,12.57,12.1318,0,5.7251-.2688,8.0454-6.6214,8.0454-3.5754,0-6.7471-.4028-6.8811-4.9095-.1257-3.4047-1.0569-6.5406-5.0268-6.5406-7.015,0-8.6013,8.449-8.6013,16.4943v23.7342c0,9.4078-1.3166,11.4511,10.8509,11.4511v5.3222c-7.5444-.1348-13.6281-.1348-19.7119-.278-6.0921.1432-12.1759.1432-18.134.278v-5.3222c10.7244,0,9.2638-3.136,9.2638-11.4511V149.1972c0-8.315,1.4606-11.451-9.2638-11.451v-5.0525c5.8233.1431,11.6474.1431,17.4715.2771,2.9112-.134,5.9581-.134,8.861-.2771Z"/><path class="cls-2" d="M534.8868,166.5164c0,23.1782-10.0619,31.9053-31.2336,31.9053s-31.3594-8.7271-31.3594-31.9053c0-24.1378,8.2078-34.9072,31.3594-34.9072C526.814,131.6092,534.8868,142.3786,534.8868,166.5164Zm-43.2755-2.8671c0,9.139-1.5863,29.4593,12.0419,29.4593,13.6364,0,12.0419-20.32,12.0419-29.4593,0-8.9958,1.5945-26.593-12.0419-26.593C490.025,137.0563,491.6113,154.6535,491.6113,163.6493Z"/><path class="cls-2" d="M571.6666,180.7c0,8.18-1.4514,11.3162,9.3986,11.3162v5.3222c-6.0837-.1348-12.1767-.1348-18.26-.278-6.0838.1432-12.1767.1432-18.26.278v-5.3222c10.85,0,9.39-3.136,9.39-11.3162V111.8349c0-8.18,1.46-11.3254-9.39-11.3254V95.4652h27.1215Z"/><path class="cls-2" d="M615.6046,180.8337c0,8.0462-1.4515,11.1822,9.3995,11.1822v5.3222c-6.093-.1348-12.1767-.1348-18.27-.278-6.0829.1432-12.1758.1432-18.26.278v-5.3222c10.85,0,9.3986-3.136,9.3986-11.1822V147.7008c0-6.2718,1.1918-9.4169-9.3986-9.4169v-5.3131h27.13Zm-17.6055-71.05c0-6.1288,2.9212-10.4923,9.13-10.4923,6.2269,0,9.13,4.3635,9.13,10.4923,0,6.137-2.9029,10.3665-9.13,10.3665C600.92,120.15,597.9991,115.92,597.9991,109.7834Z"/><path class="cls-2" d="M657.2855,141.017c7.41-5.3223,11.3877-9.4078,21.4322-9.4078,14.2989,0,18.6624,7.5,18.6624,21.002V180.7c0,8.18-1.4514,11.3162,9.3987,11.3162v5.3222c-6.0829-.1348-12.1759-.1348-18.26-.278-6.0929.1432-12.1758.1432-16.5485.278v-5.3222c9.0041,0,7.6784-4.0856,7.6784-11.3162V154.7883c0-7.7682-1.5946-13.5025-10.3216-13.5025-8.9959,0-11.3786,7.7766-11.3786,15.4109V180.7c0,7.2306-1.3266,11.3162,7.6784,11.3162v5.3222c-4.3727-.1348-10.4565-.1348-16.5485-.278-6.093.1432-12.1768.1432-18.1257.278v-5.3222c10.7161,0,9.2647-3.136,9.2647-11.3162V149.3312c0-8.18,1.4514-11.3162-9.2647-11.3162v-5.3213c4.3635.1431,8.861.1431,13.2245.2771,4.3727-.134,8.7445-.134,13.108-.2771Z"/><path class="cls-2" d="M753.7462,190.9222c-7.0068,4.7755-11.9079,7.4995-20.24,7.4995-11.7814,0-17.5963-7.2215-17.5963-18.95,0-10.9134,5.6893-17.454,16.4045-18.5468a80.1542,80.1542,0,0,1,9.9188-.5468H753.092c0-8.18,3.1809-23.1782-8.6013-23.1782-5.1608,0-8.6013,2.0423-9.0041,10.7694.2679,3.001-.5294,4.0947-2.635,4.0947h-9.2729c-1.5864.2688-2.9121-.8249-2.6433-4.0947-1.0661-12.275,11.7731-16.3605,23.5553-16.3605,19.1826,1.0845,26.3325,2.724,26.3325,21.002V180.7c0,10.7693-1.9891,11.3162,9.3986,11.3162v5.3222c-4.3635-.1348-8.87-.1348-13.2337-.278-4.3717.1432-8.87.1432-13.2419.278Zm-.6542-25.2214h-5.0268c-6.8811,0-11.1189,1.3615-12.9731,8.9959-1.0579,6.8177-.5285,15.4108,8.0811,15.4108,6.9976,0,9.9188-4.91,9.9188-11.863Z"/></g></g></svg>